<mxfile host="Electron" agent="Mozilla/5.0 (Windows NT 10.0; Win64; x64) AppleWebKit/537.36 (KHTML, like Gecko) draw.io/26.0.16 Chrome/132.0.6834.196 Electron/34.2.0 Safari/537.36" version="26.0.16" pages="2">
  <diagram name="SecureData" id="s0lPqEvlX0ODOzrKQQNH">
    <mxGraphModel dx="3648" dy="820" grid="1" gridSize="10" guides="1" tooltips="1" connect="1" arrows="1" fold="1" page="1" pageScale="1" pageWidth="850" pageHeight="1100" background="none" math="0" shadow="0">
      <root>
        <mxCell id="T9qhd_ApIJFwKfV4GljS-0" />
        <mxCell id="T9qhd_ApIJFwKfV4GljS-1" parent="T9qhd_ApIJFwKfV4GljS-0" />
        <mxCell id="07kAKTy8PJ6_Iyewppi3-4" value="" style="rounded=0;whiteSpace=wrap;html=1;" parent="T9qhd_ApIJFwKfV4GljS-1" vertex="1">
          <mxGeometry x="-2050" y="150" width="258" height="130" as="geometry" />
        </mxCell>
        <mxCell id="S_LWJ561LgljOJEoRL8_-19" value="" style="sketch=0;points=[[0,0,0],[0.25,0,0],[0.5,0,0],[0.75,0,0],[1,0,0],[1,0.25,0],[1,0.5,0],[1,0.75,0],[1,1,0],[0.75,1,0],[0.5,1,0],[0.25,1,0],[0,1,0],[0,0.75,0],[0,0.5,0],[0,0.25,0]];rounded=1;absoluteArcSize=1;arcSize=2;html=1;strokeColor=#6c8ebf;shadow=0;dashed=0;fontSize=12;align=left;verticalAlign=top;spacing=10;spacingTop=-4;whiteSpace=wrap;fillColor=#dae8fc;" parent="T9qhd_ApIJFwKfV4GljS-1" vertex="1">
          <mxGeometry x="-2517" y="270" width="360" height="292.35" as="geometry" />
        </mxCell>
        <mxCell id="S_LWJ561LgljOJEoRL8_-20" value="" style="sketch=0;points=[[0,0,0],[0.25,0,0],[0.5,0,0],[0.75,0,0],[1,0,0],[1,0.25,0],[1,0.5,0],[1,0.75,0],[1,1,0],[0.75,1,0],[0.5,1,0],[0.25,1,0],[0,1,0],[0,0.75,0],[0,0.5,0],[0,0.25,0]];rounded=1;absoluteArcSize=1;arcSize=2;html=1;strokeColor=#82b366;shadow=0;dashed=0;fontSize=12;align=left;verticalAlign=top;spacing=10;spacingTop=-4;whiteSpace=wrap;fillColor=#d5e8d4;container=0;" parent="T9qhd_ApIJFwKfV4GljS-1" vertex="1">
          <mxGeometry x="-2507" y="299.73" width="775" height="252.62" as="geometry" />
        </mxCell>
        <mxCell id="S_LWJ561LgljOJEoRL8_-21" value="&lt;font&gt;Region&lt;/font&gt;" style="text;html=1;strokeColor=none;fillColor=none;align=center;verticalAlign=middle;whiteSpace=wrap;rounded=0;fontColor=default;" parent="T9qhd_ApIJFwKfV4GljS-1" vertex="1">
          <mxGeometry x="-2507" y="299.73" width="47" height="29.73" as="geometry" />
        </mxCell>
        <mxCell id="S_LWJ561LgljOJEoRL8_-22" value="&lt;font&gt;VPC&amp;nbsp;&lt;/font&gt;" style="text;html=1;strokeColor=none;fillColor=none;align=center;verticalAlign=middle;whiteSpace=wrap;rounded=0;fontColor=default;" parent="T9qhd_ApIJFwKfV4GljS-1" vertex="1">
          <mxGeometry x="-2517" y="270" width="40" height="29.73" as="geometry" />
        </mxCell>
        <mxCell id="S_LWJ561LgljOJEoRL8_-23" value="" style="sketch=0;html=1;verticalAlign=top;labelPosition=center;verticalLabelPosition=bottom;align=center;spacingTop=-6;fontSize=11;fontStyle=1;fontColor=#999999;shape=image;aspect=fixed;imageAspect=0;image=data:image/svg+xml,PHN2ZyB4bWxucz0iaHR0cDovL3d3dy53My5vcmcvMjAwMC9zdmciIHhtbG5zOnY9Imh0dHBzOi8vdmVjdGEuaW8vbmFubyIgd2lkdGg9IjIwIiBoZWlnaHQ9IjIwIiB2aWV3Qm94PSIwIDAgMjAgMjAiPiYjeGE7CTxzdHlsZSB0eXBlPSJ0ZXh0L2NzcyI+JiN4YTsJLnN0MHtmaWxsOiM0Mjg1ZjQ7fSYjeGE7CS5zdDF7ZmlsbDojNjY5ZGY2O30mI3hhOwkuc3Qye2ZpbGw6I2FlY2JmYTt9JiN4YTsJPC9zdHlsZT4mI3hhOwk8cGF0aCBjbGFzcz0ic3QyIiBkPSJNMTQgMGg2djZoLTZ6Ii8+JiN4YTsJPHBhdGggY2xhc3M9InN0MSIgZD0iTTE3IDBoM3Y2aC0zeiIvPiYjeGE7CTxwYXRoIGNsYXNzPSJzdDIiIGQ9Ik0xNCAxNGg2djZoLTZ6Ii8+JiN4YTsJPHBhdGggY2xhc3M9InN0MSIgZD0iTTE3IDE0aDN2NmgtM3oiLz4mI3hhOwk8cGF0aCBjbGFzcz0ic3QyIiBkPSJNMCAwaDZ2NkgweiIvPiYjeGE7CTxwYXRoIGNsYXNzPSJzdDEiIGQ9Ik0zIDBoM3Y2SDN6Ii8+JiN4YTsJPHBhdGggY2xhc3M9InN0MiIgZD0iTTAgMTRoNnY2SDB6Ii8+JiN4YTsJPGcgY2xhc3M9InN0MSI+JiN4YTsJCTxwYXRoIGQ9Ik0zIDE0aDN2Nkgzek02IDJoOHYySDZ6Ii8+JiN4YTsJCTxwYXRoIGQ9Ik02IDE2aDh2Mkg2ek0xNiA2aDJ2OGgtMnpNMiA2aDJ2OEgyeiIvPiYjeGE7CTwvZz4mI3hhOwk8cGF0aCBjbGFzcz0ic3QwIiBkPSJNMiA2aDJ2Mkgyem0xNCAwaDJ2MmgtMnpNNiAyaDJ2Mkg2em0wIDE0aDJ2Mkg2eiIvPiYjeGE7PC9zdmc+;" parent="T9qhd_ApIJFwKfV4GljS-1" vertex="1">
          <mxGeometry x="-2478.94" y="269.99891089108905" width="29.73267326732673" height="29.73267326732673" as="geometry" />
        </mxCell>
        <mxCell id="S_LWJ561LgljOJEoRL8_-24" value="" style="sketch=0;points=[[0,0,0],[0.25,0,0],[0.5,0,0],[0.75,0,0],[1,0,0],[1,0.25,0],[1,0.5,0],[1,0.75,0],[1,1,0],[0.75,1,0],[0.5,1,0],[0.25,1,0],[0,1,0],[0,0.75,0],[0,0.5,0],[0,0.25,0]];rounded=1;absoluteArcSize=1;arcSize=2;html=1;strokeColor=#9673a6;shadow=0;dashed=0;fontSize=12;align=left;verticalAlign=top;spacing=10;spacingTop=-4;whiteSpace=wrap;fillColor=#e1d5e7;container=0;" parent="T9qhd_ApIJFwKfV4GljS-1" vertex="1">
          <mxGeometry x="-2492" y="322.35" width="315" height="220" as="geometry">
            <mxPoint x="10" y="35" as="offset" />
          </mxGeometry>
        </mxCell>
        <mxCell id="S_LWJ561LgljOJEoRL8_-25" value="" style="sketch=0;points=[[0,0,0],[0.25,0,0],[0.5,0,0],[0.75,0,0],[1,0,0],[1,0.25,0],[1,0.5,0],[1,0.75,0],[1,1,0],[0.75,1,0],[0.5,1,0],[0.25,1,0],[0,1,0],[0,0.75,0],[0,0.5,0],[0,0.25,0]];rounded=1;absoluteArcSize=1;arcSize=2;html=1;strokeColor=#d6b656;shadow=0;dashed=0;fontSize=12;align=left;verticalAlign=top;spacing=10;spacingTop=-4;whiteSpace=wrap;fillColor=#fff2cc;" parent="T9qhd_ApIJFwKfV4GljS-1" vertex="1">
          <mxGeometry x="-2478.94" y="372.35" width="726.94" height="160" as="geometry">
            <mxPoint x="-2" y="902" as="offset" />
          </mxGeometry>
        </mxCell>
        <mxCell id="S_LWJ561LgljOJEoRL8_-26" value="&lt;font&gt;SubNetwork&lt;/font&gt;" style="text;html=1;strokeColor=none;fillColor=none;align=center;verticalAlign=middle;whiteSpace=wrap;rounded=0;fontColor=default;" parent="T9qhd_ApIJFwKfV4GljS-1" vertex="1">
          <mxGeometry x="-2492" y="329.46" width="72" height="29.73" as="geometry" />
        </mxCell>
        <mxCell id="S_LWJ561LgljOJEoRL8_-27" value="Firewall" style="sketch=0;points=[[0,0,0],[0.25,0,0],[0.5,0,0],[0.75,0,0],[1,0,0],[1,0.25,0],[1,0.5,0],[1,0.75,0],[1,1,0],[0.75,1,0],[0.5,1,0],[0.25,1,0],[0,1,0],[0,0.75,0],[0,0.5,0],[0,0.25,0]];rounded=1;absoluteArcSize=1;arcSize=2;html=1;strokeColor=#b85450;shadow=0;dashed=0;fontSize=12;align=left;verticalAlign=top;spacing=10;spacingTop=-4;whiteSpace=wrap;fillColor=#f8cecc;" parent="T9qhd_ApIJFwKfV4GljS-1" vertex="1">
          <mxGeometry x="-2467" y="400.17999999999995" width="194.75" height="119.82" as="geometry" />
        </mxCell>
        <mxCell id="S_LWJ561LgljOJEoRL8_-31" value="" style="shadow=1;strokeWidth=1;rounded=1;absoluteArcSize=1;arcSize=2;" parent="T9qhd_ApIJFwKfV4GljS-1" vertex="1">
          <mxGeometry x="-2456.37" y="433.26" width="170" height="76.74" as="geometry" />
        </mxCell>
        <mxCell id="S_LWJ561LgljOJEoRL8_-32" value="&lt;font color=&quot;#000000&quot;&gt;server&lt;/font&gt;&lt;br&gt;Compute Engine" style="editableCssRules=.*;html=1;fontColor=#999999;shape=image;verticalLabelPosition=middle;labelBackgroundColor=#ffffff;verticalAlign=middle;labelPosition=right;align=left;spacingLeft=20;part=1;points=[];imageAspect=0;image=data:image/svg+xml,PHN2ZyB4bWxucz0iaHR0cDovL3d3dy53My5vcmcvMjAwMC9zdmciIHhtbG5zOnY9Imh0dHBzOi8vdmVjdGEuaW8vbmFubyIgd2lkdGg9IjIwIiBoZWlnaHQ9IjIwIiB2aWV3Qm94PSIwIDAgMjAgMjAiPiYjeGE7CTxzdHlsZSB0eXBlPSJ0ZXh0L2NzcyI+JiN4YTsJLnN0MHtmaWxsOiM0Mjg1ZjQ7fSYjeGE7CS5zdDF7ZmlsbDojNjY5ZGY2O30mI3hhOwkuc3Qye2ZpbGw6I2FlY2JmYTt9JiN4YTsJPC9zdHlsZT4mI3hhOwk8cGF0aCBjbGFzcz0ic3QyIiBkPSJNNyA3aDZ2Nkg3eiIvPiYjeGE7CTxwYXRoIGNsYXNzPSJzdDEiIGQ9Ik05IDBoMnY0SDl6TTUgMGgydjRINXptOCAwaDJ2NGgtMnoiLz4mI3hhOwk8cGF0aCBjbGFzcz0ic3QwIiBkPSJNOSAxNmgydjRIOXptLTQgMGgydjRINXptOCAwaDJ2NGgtMnptMy01VjloNHYyem0wIDR2LTJoNHYyem0wLThWNWg0djJ6Ii8+JiN4YTsJPHBhdGggY2xhc3M9InN0MSIgZD0iTTAgMTFWOWg0djJ6bTAgNHYtMmg0djJ6bTAtOFY1aDR2MnoiLz4mI3hhOwk8cGF0aCBjbGFzcz0ic3QyIiBkPSJNMyAzdjE0aDE0VjN6bTEyIDEySDVWNWgxMHoiLz4mI3hhOwk8cGF0aCBjbGFzcz0ic3QxIiBkPSJNMTAgMTBsLTMgM2g2eiIvPiYjeGE7CTxwYXRoIGNsYXNzPSJzdDAiIGQ9Ik0xMyA3bC0zIDMgMyAzeiIvPiYjeGE7PC9zdmc+;" parent="S_LWJ561LgljOJEoRL8_-31" vertex="1">
          <mxGeometry width="30" height="30" relative="1" as="geometry">
            <mxPoint x="15" y="15" as="offset" />
          </mxGeometry>
        </mxCell>
        <mxCell id="S_LWJ561LgljOJEoRL8_-35" value="&lt;font&gt;Zone&lt;/font&gt;" style="text;html=1;strokeColor=none;fillColor=none;align=center;verticalAlign=middle;whiteSpace=wrap;rounded=0;fontColor=default;" parent="T9qhd_ApIJFwKfV4GljS-1" vertex="1">
          <mxGeometry x="-2478.94" y="374.25" width="48.94" height="29.73" as="geometry" />
        </mxCell>
        <mxCell id="S_LWJ561LgljOJEoRL8_-45" style="edgeStyle=orthogonalEdgeStyle;rounded=0;orthogonalLoop=1;jettySize=auto;html=1;strokeWidth=3;strokeColor=#006600;" parent="T9qhd_ApIJFwKfV4GljS-1" source="S_LWJ561LgljOJEoRL8_-43" target="S_LWJ561LgljOJEoRL8_-31" edge="1">
          <mxGeometry relative="1" as="geometry" />
        </mxCell>
        <mxCell id="S_LWJ561LgljOJEoRL8_-43" value="" style="shadow=1;strokeWidth=1;rounded=1;absoluteArcSize=1;arcSize=2;" parent="T9qhd_ApIJFwKfV4GljS-1" vertex="1">
          <mxGeometry x="-2027" y="309.1321782178219" width="220" height="59.46534653465346" as="geometry" />
        </mxCell>
        <mxCell id="S_LWJ561LgljOJEoRL8_-44" value="&lt;font color=&quot;#000000&quot;&gt;IP publica&lt;/font&gt;&lt;br&gt;Cloud External IP Address" style="editableCssRules=.*;html=1;fontColor=#999999;shape=image;verticalLabelPosition=middle;labelBackgroundColor=#ffffff;verticalAlign=middle;labelPosition=right;align=left;spacingLeft=20;part=1;points=[];imageAspect=0;image=data:image/svg+xml,PHN2ZyB4bWxucz0iaHR0cDovL3d3dy53My5vcmcvMjAwMC9zdmciIHhtbG5zOnY9Imh0dHBzOi8vdmVjdGEuaW8vbmFubyIgd2lkdGg9IjE5Ljk5OTk5ODA5MjY1MTM2NyIgaGVpZ2h0PSIyMCIgdmlld0JveD0iMCAtMi44NDIxNzA1NjE4NzU1NzQ1ZS0xNSAxOS45OTk5OTgwOTI2NTEzNjcgMjAiPiYjeGE7CTxzdHlsZSB0eXBlPSJ0ZXh0L2NzcyI+JiN4YTsJLnN0MHtmaWxsOiM0Mjg1ZjQ7fSYjeGE7CS5zdDF7ZmlsbDojNjY5ZGY2O30mI3hhOwk8L3N0eWxlPiYjeGE7CTxwYXRoIGNsYXNzPSJzdDEiIGQ9Ik0xNS40OSAxMC40djYuN2EuNC40IDAgMCAxLS40LjRIMi45YS40LjQgMCAwIDEtLjQtLjRWNC45YS40LjQgMCAwIDEgLjQtLjRoNi43YS40LjQgMCAwIDAgLjQtLjRWMi40YS40LjQgMCAwIDAtLjQtLjRILjRhLjQuNCAwIDAgMC0uNC40djE3LjJhLjQuNCAwIDAgMCAuNC40aDE3LjJhLjQuNCAwIDAgMCAuNC0uNHYtOS4yYS40LjQgMCAwIDAtLjQtLjRoLTEuNzFhLjQuNCAwIDAgMC0uNC40eiIvPiYjeGE7CTxwYXRoIGNsYXNzPSJzdDAiIGQ9Ik0xMiAuNHY3LjJhLjQuNCAwIDAgMCAuNC40aDcuMmEuNC40IDAgMCAwIC40LS40Vi40YS40LjQgMCAwIDAtLjQtLjRoLTcuMmEuNC40IDAgMCAwLS40LjR6bTUuNiA0LjFoLTEuNzFhLjQuNCAwIDAgMS0uNC0uNFYyLjRhLjQuNCAwIDAgMSAuNC0uNGgxLjcxYS40LjQgMCAwIDEgLjQuNHYxLjdhLjQuNCAwIDAgMS0uNC40eiIvPiYjeGE7PC9zdmc+;" parent="S_LWJ561LgljOJEoRL8_-43" vertex="1">
          <mxGeometry width="30" height="30" relative="1" as="geometry">
            <mxPoint x="15" y="15" as="offset" />
          </mxGeometry>
        </mxCell>
        <mxCell id="S_LWJ561LgljOJEoRL8_-47" value="Firewall" style="sketch=0;points=[[0,0,0],[0.25,0,0],[0.5,0,0],[0.75,0,0],[1,0,0],[1,0.25,0],[1,0.5,0],[1,0.75,0],[1,1,0],[0.75,1,0],[0.5,1,0],[0.25,1,0],[0,1,0],[0,0.75,0],[0,0.5,0],[0,0.25,0]];rounded=1;absoluteArcSize=1;arcSize=2;html=1;strokeColor=#b85450;shadow=0;dashed=0;fontSize=12;align=left;verticalAlign=top;spacing=10;spacingTop=-4;whiteSpace=wrap;fillColor=#f8cecc;" parent="T9qhd_ApIJFwKfV4GljS-1" vertex="1">
          <mxGeometry x="-2042" y="409.76" width="250" height="115.75" as="geometry" />
        </mxCell>
        <mxCell id="S_LWJ561LgljOJEoRL8_-50" value="" style="shadow=1;strokeWidth=1;rounded=1;absoluteArcSize=1;arcSize=2;" parent="T9qhd_ApIJFwKfV4GljS-1" vertex="1">
          <mxGeometry x="-2032" y="442.04795049504946" width="231.51" height="59.46534653465346" as="geometry" />
        </mxCell>
        <mxCell id="S_LWJ561LgljOJEoRL8_-51" value="&lt;font color=&quot;#000000&quot;&gt;Base de Datos&lt;/font&gt;&lt;br&gt;Cloud SQL" style="editableCssRules=.*;html=1;fontColor=#999999;shape=image;verticalLabelPosition=middle;labelBackgroundColor=#ffffff;verticalAlign=middle;labelPosition=right;align=left;spacingLeft=20;part=1;points=[];imageAspect=0;image=data:image/svg+xml,PHN2ZyB4bWxucz0iaHR0cDovL3d3dy53My5vcmcvMjAwMC9zdmciIHhtbG5zOnY9Imh0dHBzOi8vdmVjdGEuaW8vbmFubyIgd2lkdGg9IjE0LjY1OTk5OTg0NzQxMjExIiBoZWlnaHQ9IjIwIiB2aWV3Qm94PSIwIDAgMTQuNjU5OTk5ODQ3NDEyMTEgMjAiPiYjeGE7CTxzdHlsZSB0eXBlPSJ0ZXh0L2NzcyI+JiN4YTsJLnN0MHtmaWxsOiM0Mjg1ZjQ7fSYjeGE7CS5zdDF7ZmlsbDojNjY5ZGY2O30mI3hhOwkuc3Qye2ZpbGw6I2FlY2JmYTt9JiN4YTsJPC9zdHlsZT4mI3hhOwk8c3R5bGU+JiN4YTsJCS5Ee2ZpbGwtcnVsZTpldmVub2RkfSYjeGE7CTwvc3R5bGU+JiN4YTsJPHBhdGggZD0iTTcuMzMgMTUuMzV2LTMuMDFMMCA4LjQ0djMuMDF6bTAgNC42NXYtMy4wMUwwIDEzLjA5djMuMDF6IiBjbGFzcz0ic3QyIEQiLz4mI3hhOwk8cGF0aCBkPSJNMTQuNjYgOC40NGwtNy4zMyAzLjl2My4wMWw3LjMzLTMuOXptMCA0LjY1bC03LjMzIDMuOVYyMGw3LjMzLTMuOXoiIGNsYXNzPSJzdDEgRCIvPiYjeGE7CTxwYXRoIGQ9Ik03LjMzIDB2My4wMWw3LjMzIDMuOVYzLjl6IiBjbGFzcz0ic3QwIEQiLz4mI3hhOwk8cGF0aCBkPSJNMCA2LjkxbDcuMzMtMy45VjBMMCAzLjl6IiBjbGFzcz0iRCBzdDEiLz4mI3hhOwk8cGF0aCBkPSJNNy4zMyAxMC43OVY3Ljc3TDAgMy44N3YzLjAyeiIgY2xhc3M9IkQgc3QyIi8+JiN4YTsJPHBhdGggZD0iTTE0LjY2IDMuODdsLTcuMzMgMy45djMuMDJsNy4zMy0zLjl6IiBjbGFzcz0iRCBzdDEiLz4mI3hhOzwvc3ZnPg==;" parent="S_LWJ561LgljOJEoRL8_-50" vertex="1">
          <mxGeometry width="22" height="30" relative="1" as="geometry">
            <mxPoint x="19" y="15" as="offset" />
          </mxGeometry>
        </mxCell>
        <mxCell id="S_LWJ561LgljOJEoRL8_-52" value="" style="sketch=0;html=1;verticalAlign=top;labelPosition=center;verticalLabelPosition=bottom;align=center;spacingTop=-6;fontSize=11;fontStyle=1;fontColor=#999999;shape=image;aspect=fixed;imageAspect=0;image=data:image/svg+xml,PHN2ZyB4bWxucz0iaHR0cDovL3d3dy53My5vcmcvMjAwMC9zdmciIHhtbG5zOnY9Imh0dHBzOi8vdmVjdGEuaW8vbmFubyIgd2lkdGg9IjIwIiBoZWlnaHQ9IjIwIiBmaWxsPSIjNDI4NWY0IiB2aWV3Qm94PSIwIDAgMjAgMjAiPiYjeGE7CTxzdHlsZSB0eXBlPSJ0ZXh0L2NzcyI+JiN4YTsJLnN0MHtmaWxsOiM0Mjg1ZjQ7fSYjeGE7CTwvc3R5bGU+JiN4YTsJPHBhdGggY2xhc3M9InN0MCIgZD0iTTAgMGg4Ljg5djIuMjJIMHptMCAxNy43OGg4Ljg5VjIwSDB6bTAtOC44OWg4Ljg5djIuMjJIMHpNMTEuMTEgMEgyMHYyLjIyaC04Ljg5em0wIDE3Ljc4SDIwVjIwaC04Ljg5em0wLTguODlIMjB2Mi4yMmgtOC44OXpNNS41NSA0LjQ0aDguODl2Mi4yMkg1LjU1em0wIDguODloOC44OXYyLjIySDUuNTV6TTAgNC40NGgzLjMzdjIuMjJIMHptMCA4Ljg5aDMuMzN2Mi4yMkgwem0xNi42Ny04Ljg5SDIwdjIuMjJoLTMuMzN6bTAgOC44OUgyMHYyLjIyaC0zLjMzeiIvPiYjeGE7PC9zdmc+;" parent="T9qhd_ApIJFwKfV4GljS-1" vertex="1">
          <mxGeometry x="-1982" y="412.2898514851485" width="27.502722772277227" height="27.502722772277227" as="geometry" />
        </mxCell>
        <mxCell id="S_LWJ561LgljOJEoRL8_-55" value="&lt;div style=&quot;&quot;&gt;sslMode: ENCRYPTED&lt;/div&gt;" style="rounded=0;whiteSpace=wrap;html=1;align=left;fillColor=#dae8fc;strokeColor=#6c8ebf;" parent="T9qhd_ApIJFwKfV4GljS-1" vertex="1">
          <mxGeometry x="-2032" y="507.12" width="160" height="12.88" as="geometry" />
        </mxCell>
        <mxCell id="S_LWJ561LgljOJEoRL8_-60" style="edgeStyle=orthogonalEdgeStyle;rounded=0;orthogonalLoop=1;jettySize=auto;html=1;entryX=0;entryY=0.5;entryDx=0;entryDy=0;strokeColor=#006600;strokeWidth=3;" parent="T9qhd_ApIJFwKfV4GljS-1" source="S_LWJ561LgljOJEoRL8_-31" target="S_LWJ561LgljOJEoRL8_-50" edge="1">
          <mxGeometry relative="1" as="geometry" />
        </mxCell>
        <mxCell id="S_LWJ561LgljOJEoRL8_-61" value="" style="shape=image;verticalLabelPosition=bottom;labelBackgroundColor=default;verticalAlign=top;aspect=fixed;imageAspect=0;image=https://upload.wikimedia.org/wikipedia/commons/thumb/8/89/Let%27s_Encrypt_icon.svg/1902px-Let%27s_Encrypt_icon.svg.png;" parent="T9qhd_ApIJFwKfV4GljS-1" vertex="1">
          <mxGeometry x="-2346.52" y="91.21000000000001" width="74.27" height="80" as="geometry" />
        </mxCell>
        <mxCell id="S_LWJ561LgljOJEoRL8_-62" value="CA usada cuando se firmo el certificado HTTPS" style="ellipse;shape=cloud;whiteSpace=wrap;html=1;" parent="T9qhd_ApIJFwKfV4GljS-1" vertex="1">
          <mxGeometry x="-2390" y="140" width="140" height="100" as="geometry" />
        </mxCell>
        <mxCell id="07kAKTy8PJ6_Iyewppi3-1" value="" style="image;sketch=0;aspect=fixed;html=1;points=[];align=center;fontSize=12;image=img/lib/mscae/DNS.svg;" parent="T9qhd_ApIJFwKfV4GljS-1" vertex="1">
          <mxGeometry x="-1893.4600000000003" y="171.21000000000004" width="50" height="50" as="geometry" />
        </mxCell>
        <mxCell id="07kAKTy8PJ6_Iyewppi3-2" style="edgeStyle=orthogonalEdgeStyle;rounded=0;orthogonalLoop=1;jettySize=auto;html=1;dashed=1;endArrow=none;endFill=0;strokeColor=#007FFF;" parent="T9qhd_ApIJFwKfV4GljS-1" source="07kAKTy8PJ6_Iyewppi3-3" target="07kAKTy8PJ6_Iyewppi3-1" edge="1">
          <mxGeometry relative="1" as="geometry" />
        </mxCell>
        <mxCell id="07kAKTy8PJ6_Iyewppi3-6" style="edgeStyle=orthogonalEdgeStyle;rounded=0;orthogonalLoop=1;jettySize=auto;html=1;entryX=0.5;entryY=0;entryDx=0;entryDy=0;strokeWidth=3;strokeColor=#006600;" parent="T9qhd_ApIJFwKfV4GljS-1" source="07kAKTy8PJ6_Iyewppi3-3" target="S_LWJ561LgljOJEoRL8_-43" edge="1">
          <mxGeometry relative="1" as="geometry" />
        </mxCell>
        <mxCell id="07kAKTy8PJ6_Iyewppi3-3" value="&lt;div style=&quot;font-size: 11px;&quot;&gt;&lt;font style=&quot;font-size: 11px;&quot;&gt;Name&amp;nbsp; &amp;nbsp; &amp;nbsp; &amp;nbsp; &amp;nbsp; &amp;nbsp; &amp;nbsp; &amp;nbsp; &amp;nbsp; &amp;nbsp; &lt;span style=&quot;white-space: pre;&quot;&gt;&#x9;&lt;/span&gt;&lt;span style=&quot;white-space: pre;&quot;&gt;&#x9;&lt;/span&gt;| Type &lt;span style=&quot;white-space: pre;&quot;&gt;&#x9;&lt;/span&gt;| Record&lt;/font&gt;&lt;/div&gt;&lt;div style=&quot;font-size: 11px;&quot;&gt;&lt;font style=&quot;font-size: 11px;&quot;&gt;dominio.com&lt;span style=&quot;white-space: pre;&quot;&gt;&#x9;&lt;/span&gt;| A&lt;span style=&quot;white-space: pre;&quot;&gt;&#x9;&lt;/span&gt;&lt;span style=&quot;white-space: pre;&quot;&gt;&#x9;&lt;/span&gt;| xxx.xxx.xxx.xxx&lt;/font&gt;&lt;/div&gt;&lt;div style=&quot;font-size: 11px;&quot;&gt;&lt;br&gt;&lt;/div&gt;" style="rounded=0;whiteSpace=wrap;html=1;align=left;fillColor=#dae8fc;strokeColor=#6c8ebf;" parent="T9qhd_ApIJFwKfV4GljS-1" vertex="1">
          <mxGeometry x="-2029.0100000000002" y="230" width="226.01" height="40" as="geometry" />
        </mxCell>
        <mxCell id="07kAKTy8PJ6_Iyewppi3-5" value="&lt;b&gt;Provedor de dominio&lt;/b&gt;" style="text;html=1;align=center;verticalAlign=middle;whiteSpace=wrap;rounded=0;" parent="T9qhd_ApIJFwKfV4GljS-1" vertex="1">
          <mxGeometry x="-2042" y="150" width="122" height="30" as="geometry" />
        </mxCell>
        <mxCell id="07kAKTy8PJ6_Iyewppi3-8" style="edgeStyle=orthogonalEdgeStyle;rounded=0;orthogonalLoop=1;jettySize=auto;html=1;strokeWidth=3;strokeColor=#006600;" parent="T9qhd_ApIJFwKfV4GljS-1" source="07kAKTy8PJ6_Iyewppi3-7" target="07kAKTy8PJ6_Iyewppi3-1" edge="1">
          <mxGeometry relative="1" as="geometry" />
        </mxCell>
        <mxCell id="07kAKTy8PJ6_Iyewppi3-21" style="edgeStyle=orthogonalEdgeStyle;rounded=0;orthogonalLoop=1;jettySize=auto;html=1;entryX=0.5;entryY=0;entryDx=0;entryDy=0;strokeWidth=3;" parent="T9qhd_ApIJFwKfV4GljS-1" source="07kAKTy8PJ6_Iyewppi3-7" target="S_LWJ561LgljOJEoRL8_-61" edge="1">
          <mxGeometry relative="1" as="geometry" />
        </mxCell>
        <mxCell id="07kAKTy8PJ6_Iyewppi3-7" value="" style="sketch=0;verticalLabelPosition=bottom;sketch=0;aspect=fixed;html=1;verticalAlign=top;strokeColor=none;fillColor=#000000;align=center;outlineConnect=0;pointerEvents=1;shape=mxgraph.citrix2.citrix_enterprise_browser;" parent="T9qhd_ApIJFwKfV4GljS-1" vertex="1">
          <mxGeometry x="-1932.04" y="10" width="128.04" height="110" as="geometry" />
        </mxCell>
        <mxCell id="07kAKTy8PJ6_Iyewppi3-12" style="edgeStyle=orthogonalEdgeStyle;rounded=0;orthogonalLoop=1;jettySize=auto;html=1;entryX=0.25;entryY=1;entryDx=0;entryDy=0;" parent="T9qhd_ApIJFwKfV4GljS-1" source="07kAKTy8PJ6_Iyewppi3-9" target="S_LWJ561LgljOJEoRL8_-31" edge="1">
          <mxGeometry relative="1" as="geometry">
            <Array as="points">
              <mxPoint x="-2489" y="570" />
              <mxPoint x="-2414" y="570" />
            </Array>
          </mxGeometry>
        </mxCell>
        <mxCell id="07kAKTy8PJ6_Iyewppi3-9" value="&lt;div&gt;HTTPS&lt;br&gt;ssl_certificate.crt&lt;/div&gt;&lt;div&gt;&amp;nbsp;&lt;/div&gt;" style="image;aspect=fixed;html=1;points=[];align=center;fontSize=12;image=img/lib/azure2/general/File.svg;" parent="T9qhd_ApIJFwKfV4GljS-1" vertex="1">
          <mxGeometry x="-2517" y="580" width="56.00000000000001" height="69" as="geometry" />
        </mxCell>
        <mxCell id="07kAKTy8PJ6_Iyewppi3-10" value="&lt;div&gt;&lt;span style=&quot;background-color: light-dark(#ffffff, var(--ge-dark-color, #121212)); color: light-dark(rgb(0, 0, 0), rgb(255, 255, 255));&quot;&gt;HTTPS&lt;br&gt;ssl_certificate_key.key&lt;/span&gt;&lt;/div&gt;" style="image;aspect=fixed;html=1;points=[];align=center;fontSize=12;image=img/lib/azure2/general/File.svg;" parent="T9qhd_ApIJFwKfV4GljS-1" vertex="1">
          <mxGeometry x="-2397.63" y="580" width="56.00000000000001" height="69" as="geometry" />
        </mxCell>
        <mxCell id="07kAKTy8PJ6_Iyewppi3-11" style="edgeStyle=orthogonalEdgeStyle;rounded=0;orthogonalLoop=1;jettySize=auto;html=1;entryX=0.25;entryY=1;entryDx=0;entryDy=0;" parent="T9qhd_ApIJFwKfV4GljS-1" source="07kAKTy8PJ6_Iyewppi3-10" target="S_LWJ561LgljOJEoRL8_-31" edge="1">
          <mxGeometry relative="1" as="geometry">
            <Array as="points">
              <mxPoint x="-2370" y="570" />
              <mxPoint x="-2414" y="570" />
            </Array>
          </mxGeometry>
        </mxCell>
        <mxCell id="07kAKTy8PJ6_Iyewppi3-18" style="edgeStyle=orthogonalEdgeStyle;rounded=0;orthogonalLoop=1;jettySize=auto;html=1;entryX=0.75;entryY=1;entryDx=0;entryDy=0;" parent="T9qhd_ApIJFwKfV4GljS-1" source="07kAKTy8PJ6_Iyewppi3-13" target="S_LWJ561LgljOJEoRL8_-31" edge="1">
          <mxGeometry relative="1" as="geometry">
            <Array as="points">
              <mxPoint x="-2252" y="570" />
              <mxPoint x="-2329" y="570" />
            </Array>
          </mxGeometry>
        </mxCell>
        <mxCell id="07kAKTy8PJ6_Iyewppi3-13" value="&lt;div&gt;&lt;span style=&quot;background-color: light-dark(#ffffff, var(--ge-dark-color, #121212)); color: light-dark(rgb(0, 0, 0), rgb(255, 255, 255));&quot;&gt;DB SSL&lt;br&gt;client_cert.pem&lt;/span&gt;&lt;/div&gt;" style="image;aspect=fixed;html=1;points=[];align=center;fontSize=12;image=img/lib/azure2/general/File.svg;" parent="T9qhd_ApIJFwKfV4GljS-1" vertex="1">
          <mxGeometry x="-2280" y="580" width="56.00000000000001" height="69" as="geometry" />
        </mxCell>
        <mxCell id="07kAKTy8PJ6_Iyewppi3-19" style="edgeStyle=orthogonalEdgeStyle;rounded=0;orthogonalLoop=1;jettySize=auto;html=1;entryX=0.75;entryY=1;entryDx=0;entryDy=0;" parent="T9qhd_ApIJFwKfV4GljS-1" source="07kAKTy8PJ6_Iyewppi3-16" target="S_LWJ561LgljOJEoRL8_-31" edge="1">
          <mxGeometry relative="1" as="geometry">
            <Array as="points">
              <mxPoint x="-2162" y="570" />
              <mxPoint x="-2329" y="570" />
            </Array>
          </mxGeometry>
        </mxCell>
        <mxCell id="07kAKTy8PJ6_Iyewppi3-16" value="&lt;div&gt;&lt;span style=&quot;background-color: light-dark(#ffffff, var(--ge-dark-color, #121212)); color: light-dark(rgb(0, 0, 0), rgb(255, 255, 255));&quot;&gt;DB SSL&lt;br&gt;client_key.pem&lt;/span&gt;&lt;/div&gt;" style="image;aspect=fixed;html=1;points=[];align=center;fontSize=12;image=img/lib/azure2/general/File.svg;" parent="T9qhd_ApIJFwKfV4GljS-1" vertex="1">
          <mxGeometry x="-2190" y="580" width="56.00000000000001" height="69" as="geometry" />
        </mxCell>
        <mxCell id="07kAKTy8PJ6_Iyewppi3-20" style="edgeStyle=orthogonalEdgeStyle;rounded=0;orthogonalLoop=1;jettySize=auto;html=1;entryX=0.75;entryY=1;entryDx=0;entryDy=0;" parent="T9qhd_ApIJFwKfV4GljS-1" source="07kAKTy8PJ6_Iyewppi3-17" target="S_LWJ561LgljOJEoRL8_-31" edge="1">
          <mxGeometry relative="1" as="geometry">
            <Array as="points">
              <mxPoint x="-2078" y="570" />
              <mxPoint x="-2329" y="570" />
            </Array>
          </mxGeometry>
        </mxCell>
        <mxCell id="07kAKTy8PJ6_Iyewppi3-17" value="&lt;div&gt;&lt;span style=&quot;background-color: light-dark(#ffffff, var(--ge-dark-color, #121212)); color: light-dark(rgb(0, 0, 0), rgb(255, 255, 255));&quot;&gt;DB SSL&lt;br&gt;server_ca.pem&lt;/span&gt;&lt;/div&gt;" style="image;aspect=fixed;html=1;points=[];align=center;fontSize=12;image=img/lib/azure2/general/File.svg;" parent="T9qhd_ApIJFwKfV4GljS-1" vertex="1">
          <mxGeometry x="-2106" y="580" width="56.00000000000001" height="69" as="geometry" />
        </mxCell>
        <mxCell id="07kAKTy8PJ6_Iyewppi3-23" value="Cloud&#xa;DNS" style="sketch=0;html=1;verticalAlign=top;labelPosition=center;verticalLabelPosition=bottom;align=center;spacingTop=-6;fontSize=11;fontStyle=1;fontColor=#999999;shape=image;aspect=fixed;imageAspect=0;image=data:image/svg+xml,PHN2ZyB4bWxucz0iaHR0cDovL3d3dy53My5vcmcvMjAwMC9zdmciIHhtbG5zOnY9Imh0dHBzOi8vdmVjdGEuaW8vbmFubyIgd2lkdGg9IjIwIiBoZWlnaHQ9IjIwIiB2aWV3Qm94PSIwIDAgMjAgMjAiPiYjeGE7CTxzdHlsZSB0eXBlPSJ0ZXh0L2NzcyI+JiN4YTsJLnN0MHtmaWxsOiM0Mjg1ZjQ7fSYjeGE7CS5zdDF7ZmlsbDojNjY5ZGY2O30mI3hhOwkuc3Qye2ZpbGw6I2FlY2JmYTt9JiN4YTsJLnN0M3tmaWxsOiNmZmY7fSYjeGE7CTwvc3R5bGU+JiN4YTsJPHBhdGggY2xhc3M9InN0MCIgZD0iTTkgNmgydjEwSDl6Ii8+JiN4YTsJPHBhdGggY2xhc3M9InN0MSIgZD0iTTIwIDE3SDB2MmgyMHoiLz4mI3hhOwk8cGF0aCBjbGFzcz0ic3QyIiBkPSJNMTIgMTZIOHY0aDR6TTAgMGgyMHY2SDB6Ii8+JiN4YTsJPHBhdGggY2xhc3M9InN0MSIgZD0iTTEwIDBoMTB2NkgxMHoiLz4mI3hhOwk8cGF0aCBjbGFzcz0ic3QzIiBkPSJNMiAyaDJ2MkgyeiIvPiYjeGE7CTxwYXRoIGNsYXNzPSJzdDIiIGQ9Ik0wIDhoMjB2NkgweiIvPiYjeGE7CTxwYXRoIGNsYXNzPSJzdDEiIGQ9Ik0xMCA4aDEwdjZIMTB6Ii8+JiN4YTsJPHBhdGggY2xhc3M9InN0MyIgZD0iTTIgMTBoMnYySDJ6Ii8+JiN4YTs8L3N2Zz4=;" parent="T9qhd_ApIJFwKfV4GljS-1" vertex="1">
          <mxGeometry x="-2475" y="160" width="42" height="42" as="geometry" />
        </mxCell>
      </root>
    </mxGraphModel>
  </diagram>
  <diagram id="OU1E2mAyvi995KG82dw_" name="SecureDataHorizontal">
    <mxGraphModel dx="5233" dy="820" grid="1" gridSize="10" guides="1" tooltips="1" connect="1" arrows="1" fold="1" page="1" pageScale="1" pageWidth="827" pageHeight="1169" math="0" shadow="0">
      <root>
        <mxCell id="0" />
        <mxCell id="1" parent="0" />
        <mxCell id="dev2UYLzp_xz88eW6Qcn-2" value="" style="sketch=0;points=[[0,0,0],[0.25,0,0],[0.5,0,0],[0.75,0,0],[1,0,0],[1,0.25,0],[1,0.5,0],[1,0.75,0],[1,1,0],[0.75,1,0],[0.5,1,0],[0.25,1,0],[0,1,0],[0,0.75,0],[0,0.5,0],[0,0.25,0]];rounded=1;absoluteArcSize=1;arcSize=2;html=1;strokeColor=#6c8ebf;shadow=0;dashed=0;fontSize=12;align=left;verticalAlign=top;spacing=10;spacingTop=-4;whiteSpace=wrap;fillColor=#dae8fc;" parent="1" vertex="1">
          <mxGeometry x="-4121" y="300" width="360" height="292.35" as="geometry" />
        </mxCell>
        <mxCell id="dev2UYLzp_xz88eW6Qcn-3" value="" style="sketch=0;points=[[0,0,0],[0.25,0,0],[0.5,0,0],[0.75,0,0],[1,0,0],[1,0.25,0],[1,0.5,0],[1,0.75,0],[1,1,0],[0.75,1,0],[0.5,1,0],[0.25,1,0],[0,1,0],[0,0.75,0],[0,0.5,0],[0,0.25,0]];rounded=1;absoluteArcSize=1;arcSize=2;html=1;strokeColor=#82b366;shadow=0;dashed=0;fontSize=12;align=left;verticalAlign=top;spacing=10;spacingTop=-4;whiteSpace=wrap;fillColor=#d5e8d4;container=0;" parent="1" vertex="1">
          <mxGeometry x="-4111" y="329.73" width="775" height="252.62" as="geometry" />
        </mxCell>
        <mxCell id="dev2UYLzp_xz88eW6Qcn-4" value="&lt;font&gt;Region&lt;/font&gt;" style="text;html=1;strokeColor=none;fillColor=none;align=center;verticalAlign=middle;whiteSpace=wrap;rounded=0;fontColor=default;" parent="1" vertex="1">
          <mxGeometry x="-4111" y="329.73" width="47" height="29.73" as="geometry" />
        </mxCell>
        <mxCell id="dev2UYLzp_xz88eW6Qcn-5" value="&lt;font&gt;VPC&amp;nbsp;&lt;/font&gt;" style="text;html=1;strokeColor=none;fillColor=none;align=center;verticalAlign=middle;whiteSpace=wrap;rounded=0;fontColor=default;" parent="1" vertex="1">
          <mxGeometry x="-4121" y="300" width="40" height="29.73" as="geometry" />
        </mxCell>
        <mxCell id="dev2UYLzp_xz88eW6Qcn-6" value="" style="sketch=0;html=1;verticalAlign=top;labelPosition=center;verticalLabelPosition=bottom;align=center;spacingTop=-6;fontSize=11;fontStyle=1;fontColor=#999999;shape=image;aspect=fixed;imageAspect=0;image=data:image/svg+xml,PHN2ZyB4bWxucz0iaHR0cDovL3d3dy53My5vcmcvMjAwMC9zdmciIHhtbG5zOnY9Imh0dHBzOi8vdmVjdGEuaW8vbmFubyIgd2lkdGg9IjIwIiBoZWlnaHQ9IjIwIiB2aWV3Qm94PSIwIDAgMjAgMjAiPiYjeGE7CTxzdHlsZSB0eXBlPSJ0ZXh0L2NzcyI+JiN4YTsJLnN0MHtmaWxsOiM0Mjg1ZjQ7fSYjeGE7CS5zdDF7ZmlsbDojNjY5ZGY2O30mI3hhOwkuc3Qye2ZpbGw6I2FlY2JmYTt9JiN4YTsJPC9zdHlsZT4mI3hhOwk8cGF0aCBjbGFzcz0ic3QyIiBkPSJNMTQgMGg2djZoLTZ6Ii8+JiN4YTsJPHBhdGggY2xhc3M9InN0MSIgZD0iTTE3IDBoM3Y2aC0zeiIvPiYjeGE7CTxwYXRoIGNsYXNzPSJzdDIiIGQ9Ik0xNCAxNGg2djZoLTZ6Ii8+JiN4YTsJPHBhdGggY2xhc3M9InN0MSIgZD0iTTE3IDE0aDN2NmgtM3oiLz4mI3hhOwk8cGF0aCBjbGFzcz0ic3QyIiBkPSJNMCAwaDZ2NkgweiIvPiYjeGE7CTxwYXRoIGNsYXNzPSJzdDEiIGQ9Ik0zIDBoM3Y2SDN6Ii8+JiN4YTsJPHBhdGggY2xhc3M9InN0MiIgZD0iTTAgMTRoNnY2SDB6Ii8+JiN4YTsJPGcgY2xhc3M9InN0MSI+JiN4YTsJCTxwYXRoIGQ9Ik0zIDE0aDN2Nkgzek02IDJoOHYySDZ6Ii8+JiN4YTsJCTxwYXRoIGQ9Ik02IDE2aDh2Mkg2ek0xNiA2aDJ2OGgtMnpNMiA2aDJ2OEgyeiIvPiYjeGE7CTwvZz4mI3hhOwk8cGF0aCBjbGFzcz0ic3QwIiBkPSJNMiA2aDJ2Mkgyem0xNCAwaDJ2MmgtMnpNNiAyaDJ2Mkg2em0wIDE0aDJ2Mkg2eiIvPiYjeGE7PC9zdmc+;" parent="1" vertex="1">
          <mxGeometry x="-4082.94" y="299.99891089108905" width="29.73267326732673" height="29.73267326732673" as="geometry" />
        </mxCell>
        <mxCell id="dev2UYLzp_xz88eW6Qcn-7" value="" style="sketch=0;points=[[0,0,0],[0.25,0,0],[0.5,0,0],[0.75,0,0],[1,0,0],[1,0.25,0],[1,0.5,0],[1,0.75,0],[1,1,0],[0.75,1,0],[0.5,1,0],[0.25,1,0],[0,1,0],[0,0.75,0],[0,0.5,0],[0,0.25,0]];rounded=1;absoluteArcSize=1;arcSize=2;html=1;strokeColor=#9673a6;shadow=0;dashed=0;fontSize=12;align=left;verticalAlign=top;spacing=10;spacingTop=-4;whiteSpace=wrap;fillColor=#e1d5e7;container=0;" parent="1" vertex="1">
          <mxGeometry x="-4096" y="352.3499999999999" width="315" height="220" as="geometry">
            <mxPoint x="10" y="35" as="offset" />
          </mxGeometry>
        </mxCell>
        <mxCell id="dev2UYLzp_xz88eW6Qcn-8" value="" style="sketch=0;points=[[0,0,0],[0.25,0,0],[0.5,0,0],[0.75,0,0],[1,0,0],[1,0.25,0],[1,0.5,0],[1,0.75,0],[1,1,0],[0.75,1,0],[0.5,1,0],[0.25,1,0],[0,1,0],[0,0.75,0],[0,0.5,0],[0,0.25,0]];rounded=1;absoluteArcSize=1;arcSize=2;html=1;strokeColor=#d6b656;shadow=0;dashed=0;fontSize=12;align=left;verticalAlign=top;spacing=10;spacingTop=-4;whiteSpace=wrap;fillColor=#fff2cc;" parent="1" vertex="1">
          <mxGeometry x="-4082.94" y="402.3499999999999" width="726.94" height="160" as="geometry">
            <mxPoint x="-2" y="902" as="offset" />
          </mxGeometry>
        </mxCell>
        <mxCell id="dev2UYLzp_xz88eW6Qcn-9" value="&lt;font&gt;SubNetwork&lt;/font&gt;" style="text;html=1;strokeColor=none;fillColor=none;align=center;verticalAlign=middle;whiteSpace=wrap;rounded=0;fontColor=default;" parent="1" vertex="1">
          <mxGeometry x="-4096" y="359.46000000000004" width="72" height="29.73" as="geometry" />
        </mxCell>
        <mxCell id="dev2UYLzp_xz88eW6Qcn-10" value="Firewall" style="sketch=0;points=[[0,0,0],[0.25,0,0],[0.5,0,0],[0.75,0,0],[1,0,0],[1,0.25,0],[1,0.5,0],[1,0.75,0],[1,1,0],[0.75,1,0],[0.5,1,0],[0.25,1,0],[0,1,0],[0,0.75,0],[0,0.5,0],[0,0.25,0]];rounded=1;absoluteArcSize=1;arcSize=2;html=1;strokeColor=#b85450;shadow=0;dashed=0;fontSize=12;align=left;verticalAlign=top;spacing=10;spacingTop=-4;whiteSpace=wrap;fillColor=#f8cecc;" parent="1" vertex="1">
          <mxGeometry x="-4071" y="430.17999999999984" width="194.75" height="119.82" as="geometry" />
        </mxCell>
        <mxCell id="dev2UYLzp_xz88eW6Qcn-11" value="&lt;font&gt;Zone&lt;/font&gt;" style="text;html=1;strokeColor=none;fillColor=none;align=center;verticalAlign=middle;whiteSpace=wrap;rounded=0;fontColor=default;" parent="1" vertex="1">
          <mxGeometry x="-4082.94" y="404.25" width="48.94" height="29.73" as="geometry" />
        </mxCell>
        <mxCell id="dev2UYLzp_xz88eW6Qcn-12" style="edgeStyle=orthogonalEdgeStyle;rounded=0;orthogonalLoop=1;jettySize=auto;html=1;strokeWidth=3;strokeColor=#FF8000;entryX=0.5;entryY=0;entryDx=0;entryDy=0;exitX=0;exitY=0.5;exitDx=0;exitDy=0;" parent="1" source="dev2UYLzp_xz88eW6Qcn-40" target="dev2UYLzp_xz88eW6Qcn-42" edge="1">
          <mxGeometry relative="1" as="geometry">
            <mxPoint x="-3631" y="368.8823529411766" as="sourcePoint" />
            <mxPoint x="-3975.416666666667" y="463.25999999999976" as="targetPoint" />
          </mxGeometry>
        </mxCell>
        <mxCell id="dev2UYLzp_xz88eW6Qcn-13" value="Firewall" style="sketch=0;points=[[0,0,0],[0.25,0,0],[0.5,0,0],[0.75,0,0],[1,0,0],[1,0.25,0],[1,0.5,0],[1,0.75,0],[1,1,0],[0.75,1,0],[0.5,1,0],[0.25,1,0],[0,1,0],[0,0.75,0],[0,0.5,0],[0,0.25,0]];rounded=1;absoluteArcSize=1;arcSize=2;html=1;strokeColor=#b85450;shadow=0;dashed=0;fontSize=12;align=left;verticalAlign=top;spacing=10;spacingTop=-4;whiteSpace=wrap;fillColor=#f8cecc;" parent="1" vertex="1">
          <mxGeometry x="-3646" y="439.76" width="250" height="115.75" as="geometry" />
        </mxCell>
        <mxCell id="dev2UYLzp_xz88eW6Qcn-14" value="" style="shadow=1;strokeWidth=1;rounded=1;absoluteArcSize=1;arcSize=2;" parent="1" vertex="1">
          <mxGeometry x="-3636" y="472.04795049504946" width="231.51" height="59.46534653465346" as="geometry" />
        </mxCell>
        <mxCell id="dev2UYLzp_xz88eW6Qcn-15" value="&lt;font color=&quot;#000000&quot;&gt;Base de Datos&lt;/font&gt;&lt;br&gt;Cloud SQL" style="editableCssRules=.*;html=1;fontColor=#999999;shape=image;verticalLabelPosition=middle;labelBackgroundColor=#ffffff;verticalAlign=middle;labelPosition=right;align=left;spacingLeft=20;part=1;points=[];imageAspect=0;image=data:image/svg+xml,PHN2ZyB4bWxucz0iaHR0cDovL3d3dy53My5vcmcvMjAwMC9zdmciIHhtbG5zOnY9Imh0dHBzOi8vdmVjdGEuaW8vbmFubyIgd2lkdGg9IjE0LjY1OTk5OTg0NzQxMjExIiBoZWlnaHQ9IjIwIiB2aWV3Qm94PSIwIDAgMTQuNjU5OTk5ODQ3NDEyMTEgMjAiPiYjeGE7CTxzdHlsZSB0eXBlPSJ0ZXh0L2NzcyI+JiN4YTsJLnN0MHtmaWxsOiM0Mjg1ZjQ7fSYjeGE7CS5zdDF7ZmlsbDojNjY5ZGY2O30mI3hhOwkuc3Qye2ZpbGw6I2FlY2JmYTt9JiN4YTsJPC9zdHlsZT4mI3hhOwk8c3R5bGU+JiN4YTsJCS5Ee2ZpbGwtcnVsZTpldmVub2RkfSYjeGE7CTwvc3R5bGU+JiN4YTsJPHBhdGggZD0iTTcuMzMgMTUuMzV2LTMuMDFMMCA4LjQ0djMuMDF6bTAgNC42NXYtMy4wMUwwIDEzLjA5djMuMDF6IiBjbGFzcz0ic3QyIEQiLz4mI3hhOwk8cGF0aCBkPSJNMTQuNjYgOC40NGwtNy4zMyAzLjl2My4wMWw3LjMzLTMuOXptMCA0LjY1bC03LjMzIDMuOVYyMGw3LjMzLTMuOXoiIGNsYXNzPSJzdDEgRCIvPiYjeGE7CTxwYXRoIGQ9Ik03LjMzIDB2My4wMWw3LjMzIDMuOVYzLjl6IiBjbGFzcz0ic3QwIEQiLz4mI3hhOwk8cGF0aCBkPSJNMCA2LjkxbDcuMzMtMy45VjBMMCAzLjl6IiBjbGFzcz0iRCBzdDEiLz4mI3hhOwk8cGF0aCBkPSJNNy4zMyAxMC43OVY3Ljc3TDAgMy44N3YzLjAyeiIgY2xhc3M9IkQgc3QyIi8+JiN4YTsJPHBhdGggZD0iTTE0LjY2IDMuODdsLTcuMzMgMy45djMuMDJsNy4zMy0zLjl6IiBjbGFzcz0iRCBzdDEiLz4mI3hhOzwvc3ZnPg==;" parent="dev2UYLzp_xz88eW6Qcn-14" vertex="1">
          <mxGeometry width="22" height="30" relative="1" as="geometry">
            <mxPoint x="19" y="15" as="offset" />
          </mxGeometry>
        </mxCell>
        <mxCell id="dev2UYLzp_xz88eW6Qcn-16" value="" style="sketch=0;html=1;verticalAlign=top;labelPosition=center;verticalLabelPosition=bottom;align=center;spacingTop=-6;fontSize=11;fontStyle=1;fontColor=#999999;shape=image;aspect=fixed;imageAspect=0;image=data:image/svg+xml,PHN2ZyB4bWxucz0iaHR0cDovL3d3dy53My5vcmcvMjAwMC9zdmciIHhtbG5zOnY9Imh0dHBzOi8vdmVjdGEuaW8vbmFubyIgd2lkdGg9IjIwIiBoZWlnaHQ9IjIwIiBmaWxsPSIjNDI4NWY0IiB2aWV3Qm94PSIwIDAgMjAgMjAiPiYjeGE7CTxzdHlsZSB0eXBlPSJ0ZXh0L2NzcyI+JiN4YTsJLnN0MHtmaWxsOiM0Mjg1ZjQ7fSYjeGE7CTwvc3R5bGU+JiN4YTsJPHBhdGggY2xhc3M9InN0MCIgZD0iTTAgMGg4Ljg5djIuMjJIMHptMCAxNy43OGg4Ljg5VjIwSDB6bTAtOC44OWg4Ljg5djIuMjJIMHpNMTEuMTEgMEgyMHYyLjIyaC04Ljg5em0wIDE3Ljc4SDIwVjIwaC04Ljg5em0wLTguODlIMjB2Mi4yMmgtOC44OXpNNS41NSA0LjQ0aDguODl2Mi4yMkg1LjU1em0wIDguODloOC44OXYyLjIySDUuNTV6TTAgNC40NGgzLjMzdjIuMjJIMHptMCA4Ljg5aDMuMzN2Mi4yMkgwem0xNi42Ny04Ljg5SDIwdjIuMjJoLTMuMzN6bTAgOC44OUgyMHYyLjIyaC0zLjMzeiIvPiYjeGE7PC9zdmc+;" parent="1" vertex="1">
          <mxGeometry x="-3586" y="442.2898514851486" width="27.502722772277227" height="27.502722772277227" as="geometry" />
        </mxCell>
        <mxCell id="dev2UYLzp_xz88eW6Qcn-17" value="&lt;div style=&quot;&quot;&gt;sslMode: ENCRYPTED&lt;/div&gt;" style="rounded=0;whiteSpace=wrap;html=1;align=left;fillColor=#dae8fc;strokeColor=#6c8ebf;" parent="1" vertex="1">
          <mxGeometry x="-3636" y="537.1199999999999" width="160" height="12.88" as="geometry" />
        </mxCell>
        <mxCell id="dev2UYLzp_xz88eW6Qcn-18" style="edgeStyle=orthogonalEdgeStyle;rounded=0;orthogonalLoop=1;jettySize=auto;html=1;entryX=0;entryY=0.5;entryDx=0;entryDy=0;strokeColor=#006600;strokeWidth=3;exitX=1;exitY=0.5;exitDx=0;exitDy=0;" parent="1" source="dev2UYLzp_xz88eW6Qcn-42" target="dev2UYLzp_xz88eW6Qcn-14" edge="1">
          <mxGeometry relative="1" as="geometry">
            <mxPoint x="-3890.37" y="501.66666666666674" as="sourcePoint" />
          </mxGeometry>
        </mxCell>
        <mxCell id="dev2UYLzp_xz88eW6Qcn-26" style="edgeStyle=orthogonalEdgeStyle;rounded=0;orthogonalLoop=1;jettySize=auto;html=1;strokeWidth=3;strokeColor=#006600;" parent="1" source="dev2UYLzp_xz88eW6Qcn-28" target="dev2UYLzp_xz88eW6Qcn-40" edge="1">
          <mxGeometry relative="1" as="geometry">
            <mxPoint x="-3472.4444444444443" y="201.21000000000004" as="targetPoint" />
          </mxGeometry>
        </mxCell>
        <mxCell id="dev2UYLzp_xz88eW6Qcn-28" value="" style="sketch=0;verticalLabelPosition=bottom;sketch=0;aspect=fixed;html=1;verticalAlign=top;strokeColor=none;fillColor=#000000;align=center;outlineConnect=0;pointerEvents=1;shape=mxgraph.citrix2.citrix_enterprise_browser;" parent="1" vertex="1">
          <mxGeometry x="-3561.74" y="210" width="81.48" height="70" as="geometry" />
        </mxCell>
        <mxCell id="dev2UYLzp_xz88eW6Qcn-29" style="edgeStyle=orthogonalEdgeStyle;rounded=0;orthogonalLoop=1;jettySize=auto;html=1;entryX=1;entryY=0.5;entryDx=0;entryDy=0;" parent="1" source="dev2UYLzp_xz88eW6Qcn-30" target="dev2UYLzp_xz88eW6Qcn-40" edge="1">
          <mxGeometry relative="1" as="geometry">
            <Array as="points">
              <mxPoint x="-3530" y="600" />
              <mxPoint x="-3321" y="600" />
              <mxPoint x="-3321" y="366" />
            </Array>
          </mxGeometry>
        </mxCell>
        <mxCell id="dev2UYLzp_xz88eW6Qcn-30" value="&lt;div&gt;HTTPS&lt;br&gt;ssl_certificate.crt&lt;/div&gt;&lt;div&gt;&amp;nbsp;&lt;/div&gt;" style="image;aspect=fixed;html=1;points=[];align=center;fontSize=12;image=img/lib/azure2/general/File.svg;" parent="1" vertex="1">
          <mxGeometry x="-3558.5" y="620.0000000000001" width="56.00000000000001" height="69" as="geometry" />
        </mxCell>
        <mxCell id="dev2UYLzp_xz88eW6Qcn-31" style="edgeStyle=orthogonalEdgeStyle;rounded=0;orthogonalLoop=1;jettySize=auto;html=1;entryX=1;entryY=0.5;entryDx=0;entryDy=0;" parent="1" source="dev2UYLzp_xz88eW6Qcn-32" target="dev2UYLzp_xz88eW6Qcn-40" edge="1">
          <mxGeometry relative="1" as="geometry">
            <Array as="points">
              <mxPoint x="-3411" y="600" />
              <mxPoint x="-3321" y="600" />
              <mxPoint x="-3321" y="366" />
            </Array>
          </mxGeometry>
        </mxCell>
        <mxCell id="dev2UYLzp_xz88eW6Qcn-32" value="&lt;div&gt;&lt;span style=&quot;background-color: light-dark(#ffffff, var(--ge-dark-color, #121212)); color: light-dark(rgb(0, 0, 0), rgb(255, 255, 255));&quot;&gt;HTTPS&lt;br&gt;ssl_certificate_key.key&lt;/span&gt;&lt;/div&gt;" style="image;aspect=fixed;html=1;points=[];align=center;fontSize=12;image=img/lib/azure2/general/File.svg;" parent="1" vertex="1">
          <mxGeometry x="-3439.13" y="620.0000000000001" width="56.00000000000001" height="69" as="geometry" />
        </mxCell>
        <mxCell id="dev2UYLzp_xz88eW6Qcn-33" style="edgeStyle=orthogonalEdgeStyle;rounded=0;orthogonalLoop=1;jettySize=auto;html=1;entryX=0.5;entryY=1;entryDx=0;entryDy=0;" parent="1" source="dev2UYLzp_xz88eW6Qcn-34" target="dev2UYLzp_xz88eW6Qcn-42" edge="1">
          <mxGeometry relative="1" as="geometry" />
        </mxCell>
        <mxCell id="dev2UYLzp_xz88eW6Qcn-34" value="&lt;div&gt;&lt;span style=&quot;background-color: light-dark(#ffffff, var(--ge-dark-color, #121212)); color: light-dark(rgb(0, 0, 0), rgb(255, 255, 255));&quot;&gt;DB SSL&lt;br&gt;client_cert.pem&lt;/span&gt;&lt;/div&gt;" style="image;aspect=fixed;html=1;points=[];align=center;fontSize=12;image=img/lib/azure2/general/File.svg;" parent="1" vertex="1">
          <mxGeometry x="-4091.63" y="630" width="56.00000000000001" height="69" as="geometry" />
        </mxCell>
        <mxCell id="dev2UYLzp_xz88eW6Qcn-35" style="edgeStyle=orthogonalEdgeStyle;rounded=0;orthogonalLoop=1;jettySize=auto;html=1;entryX=0.5;entryY=1;entryDx=0;entryDy=0;" parent="1" source="dev2UYLzp_xz88eW6Qcn-36" target="dev2UYLzp_xz88eW6Qcn-42" edge="1">
          <mxGeometry relative="1" as="geometry" />
        </mxCell>
        <mxCell id="dev2UYLzp_xz88eW6Qcn-36" value="&lt;div&gt;&lt;span style=&quot;background-color: light-dark(#ffffff, var(--ge-dark-color, #121212)); color: light-dark(rgb(0, 0, 0), rgb(255, 255, 255));&quot;&gt;DB SSL&lt;br&gt;client_key.pem&lt;/span&gt;&lt;/div&gt;" style="image;aspect=fixed;html=1;points=[];align=center;fontSize=12;image=img/lib/azure2/general/File.svg;" parent="1" vertex="1">
          <mxGeometry x="-4001.63" y="630" width="56.00000000000001" height="69" as="geometry" />
        </mxCell>
        <mxCell id="dev2UYLzp_xz88eW6Qcn-37" style="edgeStyle=orthogonalEdgeStyle;rounded=0;orthogonalLoop=1;jettySize=auto;html=1;entryX=0.5;entryY=1;entryDx=0;entryDy=0;" parent="1" source="dev2UYLzp_xz88eW6Qcn-38" target="dev2UYLzp_xz88eW6Qcn-42" edge="1">
          <mxGeometry relative="1" as="geometry" />
        </mxCell>
        <mxCell id="dev2UYLzp_xz88eW6Qcn-38" value="&lt;div&gt;&lt;span style=&quot;background-color: light-dark(#ffffff, var(--ge-dark-color, #121212)); color: light-dark(rgb(0, 0, 0), rgb(255, 255, 255));&quot;&gt;DB SSL&lt;br&gt;server_ca.pem&lt;/span&gt;&lt;/div&gt;" style="image;aspect=fixed;html=1;points=[];align=center;fontSize=12;image=img/lib/azure2/general/File.svg;" parent="1" vertex="1">
          <mxGeometry x="-3917.63" y="630" width="56.00000000000001" height="69" as="geometry" />
        </mxCell>
        <mxCell id="dev2UYLzp_xz88eW6Qcn-40" value="" style="strokeColor=#dddddd;shadow=1;strokeWidth=1;rounded=1;absoluteArcSize=1;arcSize=2;" parent="1" vertex="1">
          <mxGeometry x="-3585.01" y="336.3499999999999" width="130" height="60" as="geometry" />
        </mxCell>
        <mxCell id="dev2UYLzp_xz88eW6Qcn-41" value="&lt;font color=&quot;#000000&quot;&gt;Dominio&lt;/font&gt;&lt;br&gt;Cloud DNS" style="editableCssRules=.*;html=1;fontColor=#999999;shape=image;verticalLabelPosition=middle;verticalAlign=middle;labelPosition=right;align=left;spacingLeft=20;part=1;points=[];imageAspect=0;image=data:image/svg+xml,PHN2ZyB4bWxucz0iaHR0cDovL3d3dy53My5vcmcvMjAwMC9zdmciIHhtbG5zOnY9Imh0dHBzOi8vdmVjdGEuaW8vbmFubyIgd2lkdGg9IjIwIiBoZWlnaHQ9IjIwIiB2aWV3Qm94PSIwIDAgMjAgMjAiPiYjeGE7CTxzdHlsZSB0eXBlPSJ0ZXh0L2NzcyI+JiN4YTsJLnN0MHtmaWxsOiM0Mjg1ZjQ7fSYjeGE7CS5zdDF7ZmlsbDojNjY5ZGY2O30mI3hhOwkuc3Qye2ZpbGw6I2FlY2JmYTt9JiN4YTsJLnN0M3tmaWxsOiNmZmY7fSYjeGE7CTwvc3R5bGU+JiN4YTsJPHBhdGggY2xhc3M9InN0MCIgZD0iTTkgNmgydjEwSDl6Ii8+JiN4YTsJPHBhdGggY2xhc3M9InN0MSIgZD0iTTIwIDE3SDB2MmgyMHoiLz4mI3hhOwk8cGF0aCBjbGFzcz0ic3QyIiBkPSJNMTIgMTZIOHY0aDR6TTAgMGgyMHY2SDB6Ii8+JiN4YTsJPHBhdGggY2xhc3M9InN0MSIgZD0iTTEwIDBoMTB2NkgxMHoiLz4mI3hhOwk8cGF0aCBjbGFzcz0ic3QzIiBkPSJNMiAyaDJ2MkgyeiIvPiYjeGE7CTxwYXRoIGNsYXNzPSJzdDIiIGQ9Ik0wIDhoMjB2NkgweiIvPiYjeGE7CTxwYXRoIGNsYXNzPSJzdDEiIGQ9Ik0xMCA4aDEwdjZIMTB6Ii8+JiN4YTsJPHBhdGggY2xhc3M9InN0MyIgZD0iTTIgMTBoMnYySDJ6Ii8+JiN4YTs8L3N2Zz4=;" parent="dev2UYLzp_xz88eW6Qcn-40" vertex="1">
          <mxGeometry width="30" height="30" relative="1" as="geometry">
            <mxPoint x="15" y="15" as="offset" />
          </mxGeometry>
        </mxCell>
        <mxCell id="dev2UYLzp_xz88eW6Qcn-42" value="" style="shape=mxgraph.gcp2.doubleRect;strokeColor=#dddddd;shadow=1;strokeWidth=1;rounded=1;absoluteArcSize=1;arcSize=2;" parent="1" vertex="1">
          <mxGeometry x="-4062.63" y="467.7800000000002" width="178" height="68" as="geometry" />
        </mxCell>
        <mxCell id="dev2UYLzp_xz88eW6Qcn-43" value="&lt;font color=&quot;#000000&quot;&gt;Server Escalable&lt;/font&gt;&lt;br&gt;Compute Engine" style="editableCssRules=.*;html=1;fontColor=#999999;shape=image;verticalLabelPosition=middle;verticalAlign=middle;labelPosition=right;align=left;spacingLeft=20;part=1;points=[];imageAspect=0;image=data:image/svg+xml,PHN2ZyB4bWxucz0iaHR0cDovL3d3dy53My5vcmcvMjAwMC9zdmciIHhtbG5zOnY9Imh0dHBzOi8vdmVjdGEuaW8vbmFubyIgd2lkdGg9IjIwIiBoZWlnaHQ9IjIwIiB2aWV3Qm94PSIwIDAgMjAgMjAiPiYjeGE7CTxzdHlsZSB0eXBlPSJ0ZXh0L2NzcyI+JiN4YTsJLnN0MHtmaWxsOiM0Mjg1ZjQ7fSYjeGE7CS5zdDF7ZmlsbDojNjY5ZGY2O30mI3hhOwkuc3Qye2ZpbGw6I2FlY2JmYTt9JiN4YTsJPC9zdHlsZT4mI3hhOwk8cGF0aCBjbGFzcz0ic3QyIiBkPSJNNyA3aDZ2Nkg3eiIvPiYjeGE7CTxwYXRoIGNsYXNzPSJzdDEiIGQ9Ik05IDBoMnY0SDl6TTUgMGgydjRINXptOCAwaDJ2NGgtMnoiLz4mI3hhOwk8cGF0aCBjbGFzcz0ic3QwIiBkPSJNOSAxNmgydjRIOXptLTQgMGgydjRINXptOCAwaDJ2NGgtMnptMy01VjloNHYyem0wIDR2LTJoNHYyem0wLThWNWg0djJ6Ii8+JiN4YTsJPHBhdGggY2xhc3M9InN0MSIgZD0iTTAgMTFWOWg0djJ6bTAgNHYtMmg0djJ6bTAtOFY1aDR2MnoiLz4mI3hhOwk8cGF0aCBjbGFzcz0ic3QyIiBkPSJNMyAzdjE0aDE0VjN6bTEyIDEySDVWNWgxMHoiLz4mI3hhOwk8cGF0aCBjbGFzcz0ic3QxIiBkPSJNMTAgMTBsLTMgM2g2eiIvPiYjeGE7CTxwYXRoIGNsYXNzPSJzdDAiIGQ9Ik0xMyA3bC0zIDMgMyAzeiIvPiYjeGE7PC9zdmc+;" parent="dev2UYLzp_xz88eW6Qcn-42" vertex="1">
          <mxGeometry width="30" height="30" relative="1" as="geometry">
            <mxPoint x="15" y="15" as="offset" />
          </mxGeometry>
        </mxCell>
        <mxCell id="dev2UYLzp_xz88eW6Qcn-44" value="&lt;div style=&quot;&quot;&gt;Trafico HTTP (La red debe ser segura)&lt;/div&gt;" style="rounded=0;whiteSpace=wrap;html=1;align=left;fillColor=#dae8fc;strokeColor=#6c8ebf;" parent="1" vertex="1">
          <mxGeometry x="-3797.01" y="352.3499999999999" width="212" height="12.88" as="geometry" />
        </mxCell>
        <mxCell id="dev2UYLzp_xz88eW6Qcn-45" value="&lt;div style=&quot;&quot;&gt;Trafico HTTPS&lt;/div&gt;" style="rounded=0;whiteSpace=wrap;html=1;align=left;fillColor=#dae8fc;strokeColor=#6c8ebf;" parent="1" vertex="1">
          <mxGeometry x="-3510" y="287.12" width="90" height="12.88" as="geometry" />
        </mxCell>
      </root>
    </mxGraphModel>
  </diagram>
</mxfile>
